# xmcd
#
# Track frame offsets:
#	150
#	12955
#	24337
#	35034
#	45085
#	57638
#	69470
#	87807
#	98034
#	109760
#	121478
#	133704
#	147424
#	157759
#	169224
#	181605
#	192860
#	203864
#	214260
#	230139
#
# Disc length: 3209 seconds
#
# Revision: 1
# Processed by: cddbd v1.5.1PL0 Copyright (c) Steve Scherf et al.
# Submitted via: audiograbber 1.81.02
#
DISCID=130c8714
DTITLE=Various Artist - Country Love Songs Vol. 1
DYEAR=1999
DGENRE=Country
TTITLE0=Don Williams - Amanda
TTITLE1=George Jones - Talk Back Trembling Lips
TTITLE2=Waylon Jennings - Dream Baby
TTITLE3=Jim Reeves - He'll Have To Go
TTITLE4=Charley Pride - Crystal Chandeliers
TTITLE5=Patsy Cline - Walkin' After Midnight
TTITLE6=Freddy Fender - Secret Love
TTITLE7=Jimmy Rodgers - Kisses Sweeter Than Wine
TTITLE8=Kenny Rogers - Elvira
TTITLE9=Donna Fargo - Happiest Girl In The Whole USA
TTITLE10=Alabama - Loving You Is Killing Me
TTITLE11=Don Houston - Almost Persuaded
TTITLE12=Patsy Cline - I Love You Honey
TTITLE13=Charley Pride - The Happiness Of Having You
TTITLE14=Freddy Fender - Wasted Days and Wasted Nights
TTITLE15=Jim Reeves - Am I losing You?
TTITLE16=Patsy Cline - I Can't Forget You
TTITLE17=Waylon Jennings - Lorena
TTITLE18=Don Williams - I've Been Loved By The Best
TTITLE19=Patsy Cline - That's How Much I Love You
EXTD=
EXTT0=
EXTT1=
EXTT2=
EXTT3=
EXTT4=
EXTT5=
EXTT6=
EXTT7=
EXTT8=
EXTT9=
EXTT10=
EXTT11=
EXTT12=
EXTT13=
EXTT14=
EXTT15=
EXTT16=
EXTT17=
EXTT18=
EXTT19=
PLAYORDER=
